<svg width="57" height="57" viewBox="0 0 57 57" fill="none" xmlns="http://www.w3.org/2000/svg">
<path d="M19.7438 11.3779L17.1336 30.1513H32.2928L31.7407 34.4681H8.2489L11.1101 14.0885C11.2105 13.4862 11.3109 12.9842 11.4113 12.5826C11.5451 12.1811 11.8128 11.8799 12.2144 11.6791C12.6494 11.4783 13.3187 11.3779 14.2222 11.3779H19.7438Z" fill="#E7E8E9"/>
<path d="M29.7661 43.4363H33.4305C36.2414 43.4363 38.6174 43.3024 40.5583 43.0347C42.4992 42.767 44.0888 42.2483 45.3269 41.4786C46.5986 40.6755 47.6025 39.521 48.3387 38.0151C49.1084 36.5092 49.6605 34.5181 49.9952 32.0417C50.3298 29.6993 50.38 27.7751 50.1457 26.2692C49.945 24.7299 49.4263 23.5419 48.5897 22.7053C47.7531 21.8352 46.5651 21.2161 45.0257 20.848C43.4864 20.4799 41.5622 20.2791 39.2532 20.2457H35.9403H32.6273C31.523 20.2457 30.4522 20.2624 29.4148 20.2959H26.6038C25.1983 20.3293 24.2446 20.6305 23.7426 21.1994C23.2741 21.7683 22.9228 22.7053 22.7554 24.0104C22.6997 24.1442 22.6885 24.4119 22.9562 24.4119C23.2239 24.4119 28.6116 24.4454 31.272 24.4621C31.6719 24.4257 31.9748 24.4119 32.3763 24.4119H33.7316C34.2001 24.3785 34.6519 24.3617 35.0869 24.3617H36.2414C37.5131 24.3617 38.5672 24.4454 39.4038 24.6127C40.2404 24.7466 40.8762 25.0645 41.3112 25.5665C41.7463 26.0684 41.9973 26.8381 42.0642 27.8755C42.1646 28.9129 42.0976 30.3016 41.8634 32.0417C41.6626 33.3468 41.3949 34.4679 41.0603 35.4049C40.7256 36.3084 40.2571 37.0446 39.6548 37.6135C39.0859 38.1824 38.3664 38.6007 37.4963 38.8684C36.6263 39.1361 35.5722 39.27 34.334 39.27H33.0289H31.4728C30.9709 39.2365 30.4856 39.2198 30.0171 39.2198H28.8626L20.8647 39.27C20.7998 39.2644 20.6558 39.3537 20.5989 39.7552C20.3788 41.3097 20.1941 42.6007 20.0783 43.3861H22.9395H26.2524C27.3902 43.4195 28.5614 43.4363 29.7661 43.4363Z" fill="#E7E8E9"/>
<circle cx="28.4444" cy="28.4444" r="26.9444" stroke="#E7E8E9" stroke-width="3"/>
</svg>
